<svg xmlns="http://www.w3.org/2000/svg">
    <path fill="#f2933f" d="M15.88,11.69a2.12,2.12,0,0,0-2.12-2.12h0a2.11,2.11,0,0,0-1.81,1,6.28,6.28,0,0,0-3.48-1h0a6.35,6.35,0,0,0-6.34,6.37h0a6.36,6.36,0,0,0,6.34,6.38h0a6.36,6.36,0,0,0,6.35-6.38h0a6.39,6.39,0,0,0-.4-2.23A2.12,2.12,0,0,0,15.88,11.69Z"/>
    <path fill="#fab900" d="M34,2.13A2.12,2.12,0,0,0,31.84,0h0A2.11,2.11,0,0,0,30,1a6.27,6.27,0,0,0-3.47-1h0A6.37,6.37,0,0,0,20.2,6.38h0a6.37,6.37,0,0,0,6.35,6.38h0a6.36,6.36,0,0,0,6.34-6.38h0a6.3,6.3,0,0,0-.4-2.23A2.13,2.13,0,0,0,34,2.13Z"/>
    <path fill="#aeca37" d="M49.9,11.69a2.12,2.12,0,0,0-2.12-2.12h0a2.13,2.13,0,0,0-1.82,1,6.25,6.25,0,0,0-3.47-1h0a6.36,6.36,0,0,0-6.35,6.37h0a6.36,6.36,0,0,0,6.35,6.38h0a6.36,6.36,0,0,0,6.35-6.38h0a6.39,6.39,0,0,0-.4-2.23A2.13,2.13,0,0,0,49.9,11.69Z"/>
    <path fill="#72ba6f" d="M13.75,30.83a2.11,2.11,0,0,0-2.11-2.13h0a2.13,2.13,0,0,0-1.82,1,6.27,6.27,0,0,0-3.47-1h0A6.37,6.37,0,0,0,0,35.08H0a6.37,6.37,0,0,0,6.35,6.38h0a6.37,6.37,0,0,0,6.35-6.38h0a6.53,6.53,0,0,0-.4-2.23A2.13,2.13,0,0,0,13.75,30.83Z"/>
    <path fill="#3eb397" d="M31.83,21.26a2.13,2.13,0,0,0-2.12-2.13h0a2.13,2.13,0,0,0-1.82,1,6.35,6.35,0,0,0-3.47-1h0a6.37,6.37,0,0,0-6.35,6.38h0a6.37,6.37,0,0,0,6.35,6.38h0a6.37,6.37,0,0,0,6.35-6.38h0a6.34,6.34,0,0,0-.4-2.23A2.14,2.14,0,0,0,31.83,21.26Z"/>
    <path fill="#cc80b3" d="M47.77,30.83a2.12,2.12,0,0,0-2.12-2.13h0a2.11,2.11,0,0,0-1.81,1,6.28,6.28,0,0,0-3.48-1h0A6.36,6.36,0,0,0,34,35.08h0a6.36,6.36,0,0,0,6.34,6.38h0a6.37,6.37,0,0,0,6.35-6.38h0a6.3,6.3,0,0,0-.4-2.23A2.13,2.13,0,0,0,47.77,30.83Z"/>
    <path fill="#81cff4" d="M29.7,40.39a2.12,2.12,0,0,0-2.12-2.12h0a2.11,2.11,0,0,0-1.81,1,6.28,6.28,0,0,0-3.48-1h0a6.37,6.37,0,0,0-6.35,6.38h0A6.36,6.36,0,0,0,22.29,51h0a6.36,6.36,0,0,0,6.35-6.37h0a6.4,6.4,0,0,0-.4-2.24A2.11,2.11,0,0,0,29.7,40.39Z"/>
</svg>